<svg xmlns="http://www.w3.org/2000/svg"  viewBox="0 0 89 89" width="50px" height="50px"><path fill="#c0e5e4" d="M87,50c0,12.85-6.55,24.17-16.5,30.8C64.63,84.72,57.59,87,50,87s-14.63-2.28-20.5-6.2 C19.55,74.17,13,62.85,13,50c0-20.43,16.57-37,37-37S87,29.57,87,50z"/><path fill="#f1bc19" d="M77 12A1 1 0 1 0 77 14 1 1 0 1 0 77 12zM83 11A4 4 0 1 0 83 19 4 4 0 1 0 83 11z"/><path fill="#00a5a5" d="M87 22A2 2 0 1 0 87 26A2 2 0 1 0 87 22Z"/><path fill="#fbcd59" d="M81 74A2 2 0 1 0 81 78 2 2 0 1 0 81 74zM15 59A4 4 0 1 0 15 67 4 4 0 1 0 15 59z"/><path fill="#00a5a5" d="M25 85A2 2 0 1 0 25 89A2 2 0 1 0 25 85Z"/><path fill="#fff" d="M18.5 49A2.5 2.5 0 1 0 18.5 54 2.5 2.5 0 1 0 18.5 49zM79.5 32A1.5 1.5 0 1 0 79.5 35 1.5 1.5 0 1 0 79.5 32z"/><g><path fill="#b2876b" d="M29.5,80.184l0.292,0.21C35.77,84.385,42.762,86.5,50,86.5s14.23-2.115,20.223-6.116 c0.099-0.063,0.188-0.13,0.277-0.197V78.37c0-0.783-0.192-4.782-3.992-6.672l-0.001,0c-0.895-0.447-2.611-1.081-4.271-1.693 l-0.229-0.084c-1.182-0.426-2.401-0.872-3.3-1.248c-1.165-0.499-2.207-1.065-2.207-2.511v-2.09h-13v2.09 c0,1.442-1.036,2.01-2.191,2.509c-0.929,0.384-2.198,0.848-3.319,1.251l-0.226,0.083c-1.659,0.613-3.376,1.247-4.271,1.693 c-3.801,1.891-3.993,5.89-3.993,6.673V80.184z"/><path fill="#85cfcc" d="M70.5,78.37v2.43C64.63,84.72,57.59,87,50,87s-14.63-2.28-20.5-6.2v-2.43 c0-1.32,0.49-4.93,4.01-6.67c1.59-0.8,5.64-2.26,7.84-3.03c0.9,1.34,3.68,3.24,8.65,3.24s7.68-1.82,8.6-3.17 c2.17,0.74,6.29,2.16,7.89,2.96C70.02,73.42,70.5,77.05,70.5,78.37z"/><path fill="#472b29" d="M66.73,71.25c-0.96-0.48-2.79-1.15-4.55-1.8c-1.25-0.45-2.42-0.88-3.28-1.24 c-1.26-0.54-1.9-1-1.9-2.05v-2.59h-1v2.59c0,1.76,1.29,2.45,2.51,2.97c0.89,0.37,2.07,0.8,3.32,1.26c1.74,0.64,3.54,1.3,4.45,1.76 C69.82,73.9,70,77.64,70,78.37v1.56c-0.02,0.01-0.04,0.03-0.06,0.04C64.04,83.91,57.14,86,50,86s-14.04-2.09-19.95-6.03 c-0.02-0.01-0.03-0.02-0.05-0.03v-1.57c0-0.73,0.18-4.47,3.72-6.22c0.91-0.46,2.71-1.12,4.45-1.76c1.25-0.46,2.43-0.89,3.33-1.26 c1.21-0.52,2.5-1.21,2.5-2.97v-2.59h-1v2.59c0,1.05-0.64,1.51-1.89,2.05c-0.87,0.36-2.04,0.79-3.29,1.24 c-1.76,0.65-3.59,1.32-4.55,1.8C29.21,73.27,29,77.54,29,78.37v2.07l0.5,0.36C35.37,84.72,42.41,87,50,87s14.63-2.28,20.5-6.2 c0.17-0.11,0.33-0.24,0.5-0.36v-2.07C71,77.54,70.79,73.27,66.73,71.25z"/><path fill="#d8ad8f" d="M65.5,46.43c0,1.58-0.61,4.16-0.86,4.88c-0.27,0.8-0.39,1.19-1.14,1.57c0,1.53-0.5,4.22-1.16,5.45 C59.78,63.18,51.92,65.5,50,65.5s-9.78-2.32-12.34-7.17C37,57.1,36.5,54.41,36.5,52.88c-0.75-0.38-0.87-0.77-1.14-1.57 c-0.25-0.72-0.86-3.3-0.86-4.88c0-0.54,0.22-0.93,0.43-1.19c0.13-0.16,0.72-0.53,0.72-0.53v-4.32c0-3.76,1.64-7.23,4.25-9.77 c2.61-2.53,6.2-4.12,10.1-4.12c7.8,0,14.35,6.37,14.35,13.89v4.32c0,0,0.59,0.37,0.72,0.53C65.28,45.5,65.5,45.89,65.5,46.43z"/><path fill="#472b29" d="M50,66c-2.276,0-10.207-2.557-12.782-7.437c-0.655-1.221-1.156-3.751-1.213-5.389 c-0.689-0.432-0.859-0.937-1.104-1.663C34.622,50.709,34,48.07,34,46.43c0-0.554,0.182-1.06,0.541-1.504 c0.117-0.143,0.38-0.334,0.609-0.488V40.39c0-3.77,1.563-7.367,4.401-10.128C42.386,27.513,46.097,26,50,26 c8.05,0,14.85,6.59,14.85,14.39v4.048c0.229,0.153,0.492,0.344,0.607,0.486C65.818,45.37,66,45.876,66,46.43 c0,1.64-0.622,4.279-0.888,5.044c-0.256,0.76-0.428,1.269-1.117,1.701c-0.057,1.637-0.558,4.167-1.215,5.392 C60.207,63.443,52.276,66,50,66z M50,27c-3.643,0-7.105,1.413-9.752,3.979c-2.642,2.571-4.098,5.914-4.098,9.411v4.32 c0,0.172-0.089,0.332-0.234,0.423c-0.261,0.164-0.543,0.365-0.604,0.43C35.104,45.82,35,46.106,35,46.43 c0,1.505,0.591,4.02,0.833,4.716c0.264,0.785,0.339,1.007,0.893,1.288C36.894,52.519,37,52.691,37,52.88 c0,1.463,0.48,4.059,1.101,5.214C40.574,62.78,48.366,65,50,65s9.426-2.22,11.897-6.903C62.52,56.938,63,54.343,63,52.88 c0-0.188,0.106-0.361,0.274-0.446c0.554-0.281,0.629-0.503,0.877-1.241C64.409,50.45,65,47.935,65,46.43 c0-0.324-0.104-0.61-0.318-0.875c-0.055-0.057-0.337-0.258-0.598-0.421c-0.146-0.091-0.234-0.251-0.234-0.423v-4.32 C63.85,33.132,57.507,27,50,27z"/></g></svg>